<?xml version="1.0" encoding="UTF-8" standalone="no"?>
<!-- Created with Inkscape (http://www.inkscape.org/) -->

<svg
   width="512"
   height="512"
   viewBox="0 0 512 512"
   version="1.1"
   id="svg1"
   xml:space="preserve"
   inkscape:version="1.3.1 (9b9bdc1480, 2023-11-25, custom)"
   sodipodi:docname="logoNode.svg"
   xmlns:inkscape="http://www.inkscape.org/namespaces/inkscape"
   xmlns:sodipodi="http://sodipodi.sourceforge.net/DTD/sodipodi-0.dtd"
   xmlns="http://www.w3.org/2000/svg"
   xmlns:svg="http://www.w3.org/2000/svg"><sodipodi:namedview
     id="namedview1"
     pagecolor="#ffffff"
     bordercolor="#000000"
     borderopacity="0.25"
     inkscape:showpageshadow="2"
     inkscape:pageopacity="0.0"
     inkscape:pagecheckerboard="0"
     inkscape:deskcolor="#d1d1d1"
     inkscape:document-units="px"
     inkscape:zoom="0.984375"
     inkscape:cx="256.50794"
     inkscape:cy="225.52381"
     inkscape:window-width="1366"
     inkscape:window-height="704"
     inkscape:window-x="0"
     inkscape:window-y="0"
     inkscape:window-maximized="1"
     inkscape:current-layer="layer1" /><defs
     id="defs1" /><g
     inkscape:label="Camada 1"
     inkscape:groupmode="layer"
     id="layer1"><path
       style="fill:#23a423;fill-opacity:1"
       d="m 206.32859,483.40095 c -19.97823,-11.87288 -36.3002,-22.10282 -36.27104,-22.7332 0.0292,-0.63037 7.57685,-4.28978 16.77266,-8.13202 l 16.71965,-6.98588 25.23966,15.09207 c 13.88181,8.30064 26.09634,14.76083 27.14341,14.35598 1.04706,-0.40485 43.71324,-24.89948 94.81373,-54.43252 l 92.90998,-53.69643 0.0472,-110.57782 0.0472,-110.57783 -93.00775,-53.670075 C 299.58902,62.524679 256.71084,38.156437 255.45844,37.891576 254.20604,37.626715 211.01387,61.801808 159.47582,91.614004 L 65.770287,145.81799 v 110.30795 110.30794 l 29.14372,16.86438 c 22.272733,12.8884 31.499033,17.0907 39.133953,17.82431 11.39884,1.09529 21.60098,-3.07583 25.89188,-10.58581 2.05588,-3.59823 2.94417,-30.92093 3.74747,-115.2676 l 1.05287,-110.55148 15.20368,-0.61741 c 14.42107,-0.58564 15.26736,-0.36368 16.44088,4.31199 0.68046,2.71118 0.88927,54.63235 0.46401,115.38038 -0.84615,120.87229 -0.71397,119.55951 -13.54863,134.55393 -9.3459,10.91858 -22.74684,15.96342 -41.7231,15.70682 -18.43548,-0.24928 -28.78986,-4.20925 -65.335733,-24.98719 -28.15997,-16.01018 -37.54355,-23.99929 -40.47844,-34.46301 -0.86828,-3.09567 -1.57869,-57.42757 -1.57869,-120.73755 V 138.75659 l 6.31723,-8.8852 C 46.863147,120.92356 58.552347,113.7989 213.59695,24.368224 240.80346,8.6753363 250.21037,5.3459314 261.95683,7.2521196 272.09619,8.8975108 460.09971,117.73046 467.3654,126.16064 c 9.72887,11.28812 10.33923,20.00058 9.65686,137.8438 -0.68671,118.5901 -0.35568,115.25646 -12.54017,126.2862 -2.7159,2.45851 -47.10548,28.93819 -98.64353,58.84375 l -93.70553,54.37375 -14.74019,0.73993 -14.7402,0.73994 z m 67.52519,-127.06701 c -36.09721,-7.84664 -54.68023,-25.83325 -57.03811,-55.2075 l -1.0614,-13.22283 h 15.87134 15.87133 l 2.54097,10.59193 c 5.24609,21.86816 21.07022,29.52461 61.05136,29.53946 40.05072,0.0149 54.39855,-6.88404 56.3401,-27.09019 0.89091,-9.27184 0.42445,-10.70096 -4.84582,-14.84656 -8.2253,-6.47002 -22.53934,-10.08748 -58.86438,-14.87624 -36.42225,-4.80158 -48.82531,-8.12361 -62.34237,-16.69772 -13.00071,-8.24658 -18.72871,-20.06436 -18.72871,-38.6403 0,-25.99435 15.5536,-45.03704 43.94421,-53.80209 8.77134,-2.70799 19.25762,-3.66359 40.28548,-3.67118 38.29442,-0.0138 54.54677,4.75774 70.39578,20.66768 11.56052,11.60498 19.03828,28.86004 17.672,40.77849 -0.66111,5.7671 -1.05958,5.94406 -14.7414,6.54651 l -14.06193,0.61918 -6.49236,-13.60351 c -8.93021,-18.71158 -17.61779,-23.02591 -48.58693,-24.12872 -25.0428,-0.89178 -36.84714,1.48828 -46.13265,9.30153 -7.92048,6.66464 -10.46703,17.69724 -5.74748,24.90018 4.54704,6.93967 17.29434,10.62206 58.22368,16.8194 46.01647,6.96762 60.75791,11.63723 72.47473,22.95768 7.29903,7.05211 9.64105,11.1627 11.57262,20.3116 7.61432,36.06533 -13.33765,64.20513 -54.26377,72.87962 -17.43479,3.6954 -56.06094,3.62881 -73.33629,-0.12642 z"
       id="path1" /></g></svg>
